<svg xmlns="http://www.w3.org/2000/svg" xmlns:xlink="http://www.w3.org/1999/xlink" width="1000" zoomAndPan="magnify" viewBox="0 0 750 749.999995" height="1000" preserveAspectRatio="xMidYMid meet" version="1.0"><defs><g/></defs><g fill="#8c52ff" fill-opacity="1"><g transform="translate(90.361243, 420.499219)"><g><path d="M 1.816406 0 L 17.988281 0 L 29.796875 -30.707031 L 91.574219 -30.707031 L 103.203125 0 L 119.191406 0 L 69.769531 -128.09375 L 51.601562 -128.09375 Z M 34.160156 -44.152344 L 60.503906 -113.195312 L 60.867188 -113.195312 L 87.03125 -44.152344 Z M 34.160156 -44.152344 "/></g></g></g><g fill="#8c52ff" fill-opacity="1"><g transform="translate(211.36509, 420.499219)"><g><path d="M 103.566406 3.632812 C 112.46875 3.632812 120.101562 -1.273438 125.371094 -8.539062 L 117.738281 -17.441406 C 114.832031 -12.355469 110.652344 -9.085938 106.472656 -9.085938 C 102.476562 -9.085938 99.933594 -12.171875 98.84375 -16.535156 L 92.484375 -39.609375 C 90.300781 -47.242188 85.941406 -53.417969 79.039062 -56.871094 L 79.039062 -57.050781 C 100.476562 -59.960938 113.742188 -73.585938 113.742188 -91.394531 C 113.742188 -112.832031 94.84375 -128.09375 68.316406 -128.09375 L 10.902344 -128.09375 L 10.902344 0 L 25.980469 0 L 25.980469 -54.144531 L 58.324219 -54.144531 C 67.046875 -54.144531 74.496094 -47.605469 77.21875 -38.15625 L 85.035156 -11.265625 C 87.578125 -2.542969 93.390625 3.632812 103.566406 3.632812 Z M 25.980469 -67.589844 L 25.980469 -114.648438 L 68.316406 -114.648438 C 86.125 -114.648438 98.660156 -104.839844 98.660156 -91.027344 C 98.660156 -77.21875 86.125 -67.589844 68.316406 -67.589844 Z M 25.980469 -67.589844 "/></g></g></g><g fill="#8c52ff" fill-opacity="1"><g transform="translate(336.729456, 420.499219)"><g><path d="M 10.902344 0 L 91.574219 0 L 91.574219 -13.445312 L 25.980469 -13.445312 L 25.980469 -128.09375 L 10.902344 -128.09375 Z M 10.902344 0 "/></g></g></g><g fill="#8c52ff" fill-opacity="1"><g transform="translate(430.116811, 420.499219)"><g><path d="M 75.222656 4.542969 C 117.011719 4.542969 144.265625 -22.710938 144.265625 -63.957031 C 144.265625 -105.382812 117.011719 -132.636719 75.222656 -132.636719 C 33.613281 -132.636719 6.359375 -105.382812 6.359375 -63.957031 C 6.359375 -22.710938 33.613281 4.542969 75.222656 4.542969 Z M 75.222656 -8.902344 C 42.699219 -8.902344 21.441406 -30.886719 21.441406 -63.957031 C 21.441406 -97.207031 42.699219 -119.191406 75.222656 -119.191406 C 107.746094 -119.191406 129.003906 -97.207031 129.003906 -63.957031 C 129.003906 -30.886719 107.746094 -8.902344 75.222656 -8.902344 Z M 75.222656 -8.902344 "/></g></g></g><g fill="#8c52ff" fill-opacity="1"><g transform="translate(591.102622, 366.850895)"><g><path d="M 53.25 -33.75 L 33.640625 -33.75 L 33.640625 -14.546875 L 27 -14.546875 L 27 -33.75 L 7.375 -33.75 L 7.375 -39.96875 L 27 -39.96875 L 27 -59.265625 L 33.640625 -59.265625 L 33.640625 -39.96875 L 53.25 -39.96875 Z M 53.25 -33.75 "/></g></g></g></svg>