<svg xmlns="http://www.w3.org/2000/svg" xmlns:xlink="http://www.w3.org/1999/xlink" width="1200" zoomAndPan="magnify" viewBox="0 0 900 470.999988" height="628" preserveAspectRatio="xMidYMid meet" version="1.0"><defs><g/><clipPath id="57a06399db"><path d="M 47.101562 143.355469 L 473.75 143.355469 L 473.75 295.847656 L 47.101562 295.847656 Z M 47.101562 143.355469 " clip-rule="nonzero"/></clipPath></defs><g fill="#000000" fill-opacity="1"><g transform="translate(473.748292, 247.566208)"><g><path d="M 31.292969 0 L 42.742188 0 L 67.800781 -49.886719 L 67.914062 -49.886719 L 93.425781 0 L 104.875 0 L 135.375 -57.257812 L 126.078125 -57.257812 L 99.09375 -7.597656 L 98.980469 -7.597656 L 73.582031 -57.257812 L 62.246094 -57.257812 L 37.1875 -7.824219 L 37.074219 -7.824219 L 9.75 -57.257812 L 0.226562 -57.257812 Z M 31.292969 0 "/></g></g></g><g fill="#000000" fill-opacity="1"><g transform="translate(609.11949, 247.566208)"><g><path d="M 36.507812 -59.636719 C 25.964844 -59.636719 17.6875 -54.195312 13.378906 -45.238281 L 13.265625 -45.238281 L 12.359375 -57.257812 L 4.535156 -57.257812 L 4.535156 0 L 13.152344 0 L 13.152344 -23.921875 C 13.152344 -40.929688 21.429688 -51.585938 35.488281 -51.585938 C 44.21875 -51.585938 50.566406 -46.484375 51.472656 -37.1875 L 59.070312 -39.683594 C 57.710938 -52.378906 48.980469 -59.636719 36.507812 -59.636719 Z M 36.507812 -59.636719 "/></g></g></g><g fill="#000000" fill-opacity="1"><g transform="translate(670.456012, 247.566208)"><g><path d="M 10.203125 -68.367188 C 14.058594 -68.367188 16.667969 -70.863281 16.667969 -74.714844 C 16.667969 -78.457031 14.058594 -80.953125 10.203125 -80.953125 C 6.347656 -80.953125 3.855469 -78.457031 3.855469 -74.714844 C 3.855469 -70.863281 6.347656 -68.367188 10.203125 -68.367188 Z M 5.894531 0 L 14.511719 0 L 14.511719 -57.257812 L 5.894531 -57.257812 Z M 5.894531 0 "/></g></g></g><g fill="#000000" fill-opacity="1"><g transform="translate(690.977109, 247.566208)"><g><path d="M 44.332031 2.265625 C 56.007812 2.265625 66.101562 -4.308594 69.726562 -14.285156 L 62.246094 -17.914062 C 59.75 -10.203125 52.722656 -5.214844 44.445312 -5.214844 C 34.695312 -5.214844 29.363281 -10.65625 29.476562 -20.40625 L 29.476562 -50 L 66.894531 -50 L 66.894531 -57.257812 L 29.476562 -57.257812 L 29.476562 -77.4375 L 20.636719 -75.398438 L 20.636719 -57.257812 L 0 -57.257812 L 0 -50 L 20.75 -50 L 20.75 -19.953125 C 20.75 -5.667969 29.136719 2.265625 44.332031 2.265625 Z M 44.332031 2.265625 "/></g></g></g><g fill="#000000" fill-opacity="1"><g transform="translate(762.630881, 247.566208)"><g><path d="M 46.484375 2.265625 C 63.039062 2.265625 79.136719 -3.515625 87.074219 -11.566406 L 82.085938 -17.800781 C 75.625 -10.996094 61.679688 -6.007812 47.390625 -6.007812 C 29.476562 -6.007812 14.851562 -13.832031 13.378906 -24.941406 L 82.652344 -24.941406 C 82.765625 -26.078125 82.878906 -28.117188 82.878906 -29.136719 C 82.878906 -46.824219 66.328125 -59.523438 43.425781 -59.523438 C 20.066406 -59.523438 3.402344 -46.824219 3.402344 -29.25 C 3.402344 -10.996094 21.65625 2.265625 46.484375 2.265625 Z M 13.152344 -32.652344 C 14.171875 -43.3125 26.984375 -51.132812 42.855469 -51.132812 C 59.183594 -51.132812 72.335938 -44.105469 73.582031 -32.652344 Z M 13.152344 -32.652344 "/></g></g></g><g clip-path="url(#57a06399db)"><path fill="#000000" d="M 47.101562 143.355469 L 473.59375 143.355469 L 473.59375 295.847656 L 47.101562 295.847656 Z M 47.101562 143.355469 " fill-opacity="1" fill-rule="nonzero"/></g><g fill="#ffffff" fill-opacity="1"><g transform="translate(89.162722, 247.566208)"><g><path d="M 46.484375 2.265625 C 63.039062 2.265625 79.136719 -3.515625 87.074219 -11.566406 L 82.085938 -17.800781 C 75.625 -10.996094 61.679688 -6.007812 47.390625 -6.007812 C 29.476562 -6.007812 14.851562 -13.832031 13.378906 -24.941406 L 82.652344 -24.941406 C 82.765625 -26.078125 82.878906 -28.117188 82.878906 -29.136719 C 82.878906 -46.824219 66.328125 -59.523438 43.425781 -59.523438 C 20.066406 -59.523438 3.402344 -46.824219 3.402344 -29.25 C 3.402344 -10.996094 21.65625 2.265625 46.484375 2.265625 Z M 13.152344 -32.652344 C 14.171875 -43.3125 26.984375 -51.132812 42.855469 -51.132812 C 59.183594 -51.132812 72.335938 -44.105469 73.582031 -32.652344 Z M 13.152344 -32.652344 "/></g></g></g><g fill="#ffffff" fill-opacity="1"><g transform="translate(179.410188, 247.566208)"><g><path d="M 32.425781 2.265625 C 49.433594 2.265625 64.171875 -3.855469 70.179688 -12.472656 L 70.292969 -12.472656 L 70.40625 -10.203125 C 70.636719 -2.722656 75.851562 2.265625 83.671875 2.265625 C 89.683594 2.265625 95.238281 -0.339844 97.730469 -4.421875 L 92.96875 -9.976562 C 91.496094 -7.371094 88.433594 -5.667969 85.035156 -5.667969 C 81.292969 -5.667969 78.910156 -8.164062 78.910156 -12.019531 L 78.910156 -38.546875 C 78.910156 -52.265625 62.585938 -59.523438 44.445312 -59.523438 C 27.324219 -59.523438 10.203125 -53.0625 3.628906 -44.558594 L 8.730469 -38.777344 C 14.285156 -46.144531 29.476562 -51.585938 44.558594 -51.585938 C 59.410156 -51.585938 70.519531 -46.144531 70.519531 -39.683594 C 70.519531 -37.300781 68.820312 -35.941406 65.871094 -35.714844 L 36.847656 -33.558594 C 13.605469 -31.746094 2.265625 -25.054688 2.265625 -14.398438 C 2.265625 -3.402344 13.152344 2.265625 32.425781 2.265625 Z M 33.21875 -5.101562 C 18.367188 -5.101562 10.882812 -8.503906 10.882812 -15.191406 C 10.882812 -21.542969 19.726562 -25.054688 37.753906 -26.417969 L 70.292969 -28.910156 L 70.292969 -26.078125 C 70.292969 -14.511719 54.082031 -5.101562 33.21875 -5.101562 Z M 33.21875 -5.101562 "/></g></g></g><g fill="#ffffff" fill-opacity="1"><g transform="translate(277.140481, 247.566208)"><g><path d="M 43.765625 2.265625 C 62.359375 2.265625 76.078125 -4.648438 76.078125 -16.328125 C 76.078125 -27.777344 64.964844 -31.066406 51.019531 -32.652344 L 33.898438 -34.355469 C 23.015625 -35.488281 17.234375 -37.300781 17.234375 -42.515625 C 17.234375 -48.1875 25.964844 -52.039062 37.980469 -52.039062 C 49.433594 -52.039062 59.976562 -47.050781 63.832031 -40.476562 L 70.519531 -45.238281 C 65.871094 -53.515625 52.496094 -59.523438 38.207031 -59.523438 C 21.089844 -59.523438 8.617188 -52.949219 8.617188 -41.835938 C 8.617188 -31.519531 19.273438 -27.664062 32.992188 -26.304688 L 49.546875 -24.714844 C 60.65625 -23.46875 67.574219 -21.089844 67.574219 -15.757812 C 67.574219 -9.636719 57.144531 -5.554688 43.539062 -5.554688 C 26.644531 -5.554688 13.265625 -12.359375 10.089844 -21.769531 L 2.835938 -17.914062 C 6.574219 -6.234375 23.355469 2.265625 43.765625 2.265625 Z M 43.765625 2.265625 "/></g></g></g><g fill="#ffffff" fill-opacity="1"><g transform="translate(356.050329, 247.566208)"><g><path d="M 37.414062 26.078125 C 62.585938 26.078125 79.023438 13.71875 79.023438 -5.667969 L 79.023438 -57.257812 L 70.40625 -57.257812 L 70.40625 -32.539062 C 70.40625 -14.738281 58.390625 -3.289062 40.363281 -3.289062 C 24.035156 -3.289062 13.152344 -13.492188 13.152344 -29.136719 L 13.152344 -57.257812 L 4.421875 -57.257812 L 4.421875 -28.230469 C 4.421875 -8.390625 18.59375 4.535156 39.570312 4.535156 C 53.289062 4.535156 65.078125 -1.8125 70.179688 -11.792969 L 70.292969 -11.792969 L 70.292969 -5.667969 C 70.292969 8.957031 57.371094 18.253906 37.414062 18.253906 C 21.542969 18.253906 7.597656 12.246094 0.339844 5.78125 L -4.308594 12.359375 C 1.8125 18.933594 18.820312 26.078125 37.414062 26.078125 Z M 37.414062 26.078125 "/></g></g></g></svg>