<svg xmlns="http://www.w3.org/2000/svg" xmlns:xlink="http://www.w3.org/1999/xlink" width="150" zoomAndPan="magnify" viewBox="0 0 112.5 37.5" height="50" preserveAspectRatio="xMidYMid meet" version="1.0"><defs><g/><clipPath id="b69c0302ab"><path d="M 11.882812 3.269531 L 41.617188 3.269531 L 41.617188 33.007812 L 11.882812 33.007812 Z M 11.882812 3.269531 " clip-rule="nonzero"/></clipPath><clipPath id="f300c01212"><path d="M 26.75 3.269531 C 18.539062 3.269531 11.882812 9.929688 11.882812 18.140625 C 11.882812 26.351562 18.539062 33.007812 26.75 33.007812 C 34.960938 33.007812 41.617188 26.351562 41.617188 18.140625 C 41.617188 9.929688 34.960938 3.269531 26.75 3.269531 " clip-rule="nonzero"/></clipPath></defs><g clip-path="url(#b69c0302ab)"><g clip-path="url(#f300c01212)"><path fill="#000000" d="M 11.882812 3.269531 L 41.617188 3.269531 L 41.617188 33.007812 L 11.882812 33.007812 Z M 11.882812 3.269531 " fill-opacity="1" fill-rule="nonzero"/></g></g><g fill="#ffffff" fill-opacity="1"><g transform="translate(9.821031, 31.925041)"><g><path d="M 0.933594 -21.417969 C 0.851562 -21.335938 0.851562 -21.214844 0.933594 -21.171875 C 1.824219 -21.578125 2.71875 -21.945312 3.652344 -22.226562 C 6.328125 -23.160156 9.085938 -23.769531 11.84375 -24.378906 C 13.425781 -24.742188 15.046875 -25.148438 16.628906 -25.554688 C 16.265625 -25.554688 15.898438 -25.554688 15.535156 -25.511719 C 13.789062 -25.390625 12.128906 -25.066406 10.464844 -24.742188 L 9.53125 -24.5 C 6.613281 -23.726562 3.609375 -22.835938 0.933594 -21.417969 Z M 23.6875 -4.90625 C 24.175781 -5.273438 24.5 -5.839844 24.457031 -6.570312 C 24.296875 -8.882812 23.527344 -12.453125 20.402344 -11.804688 C 19.957031 -11.679688 19.550781 -11.480469 19.105469 -11.355469 L 17.523438 -10.871094 C 16.550781 -10.546875 15.574219 -10.179688 14.601562 -9.816406 C 13.992188 -9.613281 13.386719 -9.371094 12.777344 -9.125 L 9.328125 -7.789062 C 8.4375 -7.421875 7.542969 -7.058594 6.652344 -6.652344 L 6.53125 -6.570312 C 6.53125 -6.652344 6.53125 -6.691406 6.53125 -6.734375 L 6.285156 -9.371094 C 7.421875 -9.9375 8.519531 -10.503906 9.695312 -10.992188 C 11.601562 -11.804688 13.507812 -12.410156 15.453125 -12.9375 C 16.425781 -13.183594 17.441406 -13.386719 18.414062 -13.546875 C 19.347656 -13.75 20.238281 -13.710938 21.089844 -14.117188 C 21.820312 -14.480469 22.308594 -15.371094 22.144531 -16.144531 C 22.066406 -16.550781 21.820312 -16.953125 21.457031 -17.15625 C 21.417969 -17.15625 21.417969 -17.15625 21.375 -17.199219 C 21.335938 -17.359375 21.253906 -17.523438 21.171875 -17.683594 C 21.132812 -17.765625 21.089844 -17.886719 21.011719 -18.007812 C 20.441406 -18.984375 19.46875 -19.023438 18.457031 -18.984375 C 17.96875 -18.941406 17.523438 -18.902344 17.035156 -18.820312 L 16.507812 -18.699219 C 15.210938 -18.332031 13.871094 -17.96875 12.574219 -17.644531 C 10.261719 -16.792969 8.03125 -15.820312 5.757812 -14.84375 C 5.757812 -15.046875 5.515625 -16.507812 5.476562 -16.914062 L 5.558594 -16.996094 C 6.8125 -17.523438 8.113281 -18.007812 9.410156 -18.457031 C 9.855469 -18.65625 13.871094 -19.875 15.941406 -20.441406 C 16.023438 -20.441406 16.101562 -20.484375 16.183594 -20.523438 C 17.117188 -20.765625 18.050781 -21.050781 18.941406 -21.335938 L 20.96875 -21.945312 C 21.132812 -22.753906 21.011719 -23.605469 20.726562 -24.457031 C 20.523438 -24.621094 20.28125 -24.824219 20.078125 -24.984375 L 19.429688 -25.230469 C 19.183594 -25.308594 18.902344 -25.351562 18.617188 -25.390625 C 16.507812 -24.824219 14.398438 -24.253906 12.25 -23.769531 C 9.492188 -23.199219 6.734375 -22.59375 4.054688 -21.660156 C 3.203125 -21.375 2.3125 -21.050781 1.460938 -20.6875 C 1.417969 -20.566406 1.339844 -20.441406 1.296875 -20.363281 C 0.730469 -19.875 0.363281 -19.265625 0.285156 -18.457031 C 0.203125 -17.765625 0.445312 -16.996094 0.933594 -16.46875 L 1.417969 -11.84375 L 1.90625 -6.976562 C 2.027344 -5.558594 2.109375 -4.097656 2.351562 -2.71875 C 1.988281 -1.664062 2.675781 -0.445312 3.691406 -0.0390625 C 3.652344 0.164062 3.652344 0.324219 3.730469 0.527344 C 4.054688 1.21875 4.785156 1.257812 5.433594 1.136719 C 5.597656 1.136719 5.839844 1.09375 5.839844 1.09375 C 5.800781 1.136719 8.113281 0.445312 8.597656 0.121094 L 8.640625 0.0820312 C 9.085938 -0.121094 9.53125 -0.285156 9.976562 -0.488281 C 10.058594 -0.527344 10.179688 -0.566406 10.261719 -0.609375 L 10.300781 -0.609375 C 11.640625 -1.175781 13.019531 -1.664062 14.398438 -2.148438 C 17.277344 -3.164062 20.28125 -3.933594 23.28125 -4.503906 C 23.527344 -4.542969 23.648438 -4.707031 23.6875 -4.90625 Z M 13.871094 -13.507812 L 13.914062 -13.386719 C 13.667969 -13.304688 13.464844 -13.222656 13.222656 -13.101562 C 11.195312 -12.289062 9.085938 -11.519531 7.097656 -10.503906 C 7.421875 -10.789062 7.667969 -11.195312 7.746094 -11.640625 C 8.519531 -11.84375 9.289062 -12.085938 10.101562 -12.332031 C 11.355469 -12.734375 12.613281 -13.101562 13.871094 -13.507812 Z M 4.90625 0.527344 C 5.71875 0.324219 6.488281 0 7.261719 -0.285156 C 8.03125 -0.527344 8.761719 -0.8125 9.492188 -1.09375 L 9.492188 -1.015625 C 8.882812 -0.691406 8.273438 -0.363281 7.625 -0.0390625 C 7.339844 0.121094 7.015625 0.285156 6.691406 0.445312 C 6.652344 0.488281 6.613281 0.488281 6.570312 0.488281 C 6.449219 0.527344 5.515625 0.609375 4.90625 0.527344 Z M 4.90625 0.527344 "/></g></g></g><g fill="#000000" fill-opacity="1"><g transform="translate(43.846653, 19.63054)"><g><path d="M 5.714844 -3.453125 C 5.714844 -5.203125 4.8125 -6.253906 3.238281 -6.253906 C 1.523438 -6.253906 0.464844 -5.003906 0.464844 -3.023438 C 0.464844 -1.046875 1.523438 0.117188 3.394531 0.117188 C 4.167969 0.117188 4.835938 -0.0234375 5.394531 -0.355469 L 5.394531 -1.511719 C 4.871094 -1.226562 4.289062 -1.070312 3.691406 -1.070312 C 2.65625 -1.070312 2.074219 -1.65625 2.046875 -2.679688 L 5.65625 -2.679688 C 5.691406 -2.953125 5.714844 -3.203125 5.714844 -3.453125 Z M 3.25 -5.074219 C 3.90625 -5.074219 4.238281 -4.597656 4.238281 -3.644531 L 2.058594 -3.644531 C 2.15625 -4.574219 2.585938 -5.074219 3.25 -5.074219 Z M 3.25 -5.074219 "/></g></g></g><g fill="#000000" fill-opacity="1"><g transform="translate(50.0022, 19.63054)"><g><path d="M 3.109375 -6.203125 C 2.371094 -6.203125 1.632812 -6.039062 0.964844 -5.691406 L 0.964844 -4.441406 C 1.582031 -4.777344 2.226562 -4.953125 2.835938 -4.953125 C 3.644531 -4.953125 4.011719 -4.550781 4.011719 -3.871094 L 4.011719 -3.789062 C 3.761719 -3.824219 3.523438 -3.835938 3.214844 -3.835938 C 1.582031 -3.835938 0.464844 -3.109375 0.464844 -1.679688 C 0.464844 -0.558594 1.132812 0.117188 2.226562 0.117188 C 3.074219 0.117188 3.726562 -0.214844 4.179688 -0.75 L 4.203125 -0.75 L 4.289062 0 L 5.597656 0 L 5.597656 -3.882812 C 5.597656 -5.40625 4.75 -6.203125 3.109375 -6.203125 Z M 2.871094 -1 C 2.324219 -1 2.085938 -1.320312 2.085938 -1.820312 C 2.085938 -2.535156 2.585938 -2.941406 3.464844 -2.941406 C 3.667969 -2.941406 3.859375 -2.917969 4.011719 -2.894531 L 4.011719 -2.238281 C 4.011719 -1.476562 3.476562 -1 2.871094 -1 Z M 2.871094 -1 "/></g></g></g><g fill="#000000" fill-opacity="1"><g transform="translate(56.372065, 19.63054)"><g><path d="M 2.464844 0.117188 C 3.976562 0.117188 4.941406 -0.605469 4.941406 -1.761719 C 4.941406 -3.976562 2.15625 -3.441406 2.15625 -4.441406 C 2.15625 -4.800781 2.464844 -4.988281 3.011719 -4.988281 C 3.574219 -4.988281 4.167969 -4.847656 4.65625 -4.65625 L 4.65625 -5.859375 C 4.121094 -6.074219 3.453125 -6.191406 2.785156 -6.191406 C 1.40625 -6.191406 0.535156 -5.5625 0.535156 -4.429688 C 0.535156 -2.371094 3.324219 -2.835938 3.324219 -1.761719 C 3.324219 -1.296875 2.90625 -1.09375 2.25 -1.09375 C 1.644531 -1.09375 0.953125 -1.273438 0.453125 -1.476562 L 0.453125 -0.203125 C 1.082031 0.0234375 1.714844 0.117188 2.464844 0.117188 Z M 2.464844 0.117188 "/></g></g></g><g fill="#000000" fill-opacity="1"><g transform="translate(61.729889, 19.63054)"><g><path d="M 4.429688 -6.085938 L 3.5625 -3.441406 C 3.441406 -3.0625 3.3125 -2.621094 3.15625 -2.074219 L 3.144531 -2.074219 C 2.953125 -2.65625 2.835938 -3.074219 2.714844 -3.429688 L 1.796875 -6.085938 L 0.0585938 -6.085938 L 2.371094 -0.34375 C 1.941406 0.917969 1.488281 1.332031 0.605469 1.347656 L 0.59375 2.691406 C 2.40625 2.65625 3.074219 2.011719 3.882812 -0.144531 L 6.109375 -6.085938 Z M 4.429688 -6.085938 "/></g></g></g><g fill="#000000" fill-opacity="1"><g transform="translate(67.885437, 19.63054)"><g><path d="M 2.285156 0.046875 L 3.121094 0.046875 L 4.0625 -2.179688 C 4.261719 -2.65625 4.464844 -3.144531 4.597656 -3.574219 L 4.621094 -3.574219 C 4.800781 -3.097656 4.988281 -2.632812 5.179688 -2.179688 L 6.121094 0.046875 L 6.957031 0.046875 L 9.132812 -6.085938 L 7.429688 -6.085938 L 6.789062 -4.144531 C 6.621094 -3.632812 6.492188 -3.121094 6.371094 -2.585938 L 6.335938 -2.585938 C 6.167969 -3.023438 6.015625 -3.394531 5.847656 -3.8125 L 4.988281 -5.90625 L 4.261719 -5.90625 L 3.371094 -3.773438 L 2.917969 -2.585938 L 2.882812 -2.585938 C 2.773438 -3.121094 2.632812 -3.632812 2.464844 -4.144531 L 1.808594 -6.085938 L 0.09375 -6.085938 Z M 2.285156 0.046875 "/></g></g></g><g fill="#000000" fill-opacity="1"><g transform="translate(77.112803, 19.63054)"><g><path d="M 0.832031 0 L 2.417969 0 L 2.417969 -3.132812 C 2.417969 -4.15625 2.941406 -4.800781 3.847656 -4.800781 C 4.121094 -4.800781 4.335938 -4.777344 4.574219 -4.703125 L 4.574219 -6.097656 C 4.382812 -6.132812 4.214844 -6.15625 3.964844 -6.15625 C 3.203125 -6.15625 2.65625 -5.777344 2.25 -5.300781 L 2.226562 -5.300781 L 2.15625 -6.085938 L 0.832031 -6.085938 Z M 0.832031 0 "/></g></g></g><g fill="#000000" fill-opacity="1"><g transform="translate(81.8396, 19.63054)"><g><path d="M 1.632812 -6.929688 C 2.226562 -6.929688 2.585938 -7.3125 2.585938 -7.847656 C 2.585938 -8.359375 2.238281 -8.753906 1.632812 -8.753906 C 1.023438 -8.753906 0.667969 -8.359375 0.667969 -7.847656 C 0.667969 -7.3125 1.023438 -6.929688 1.632812 -6.929688 Z M 0.832031 0 L 2.417969 0 L 2.417969 -6.085938 L 0.832031 -6.085938 Z M 0.832031 0 "/></g></g></g><g fill="#000000" fill-opacity="1"><g transform="translate(85.090013, 19.63054)"><g><path d="M 3.476562 -1.15625 C 3.023438 -1.15625 2.824219 -1.40625 2.824219 -1.988281 L 2.824219 -4.824219 L 4.144531 -4.824219 L 4.144531 -6.085938 L 2.824219 -6.085938 L 2.824219 -7.917969 L 1.238281 -7.644531 L 1.238281 -6.085938 L 0.214844 -6.085938 L 0.214844 -4.824219 L 1.238281 -4.824219 L 1.238281 -1.726562 C 1.238281 -0.417969 1.773438 0.117188 3 0.117188 C 3.511719 0.117188 3.894531 0.0585938 4.226562 -0.0703125 L 4.226562 -1.285156 C 4.039062 -1.191406 3.789062 -1.15625 3.476562 -1.15625 Z M 3.476562 -1.15625 "/></g></g></g><g fill="#000000" fill-opacity="1"><g transform="translate(89.578683, 19.63054)"><g><path d="M 5.714844 -3.453125 C 5.714844 -5.203125 4.8125 -6.253906 3.238281 -6.253906 C 1.523438 -6.253906 0.464844 -5.003906 0.464844 -3.023438 C 0.464844 -1.046875 1.523438 0.117188 3.394531 0.117188 C 4.167969 0.117188 4.835938 -0.0234375 5.394531 -0.355469 L 5.394531 -1.511719 C 4.871094 -1.226562 4.289062 -1.070312 3.691406 -1.070312 C 2.65625 -1.070312 2.074219 -1.65625 2.046875 -2.679688 L 5.65625 -2.679688 C 5.691406 -2.953125 5.714844 -3.203125 5.714844 -3.453125 Z M 3.25 -5.074219 C 3.90625 -5.074219 4.238281 -4.597656 4.238281 -3.644531 L 2.058594 -3.644531 C 2.15625 -4.574219 2.585938 -5.074219 3.25 -5.074219 Z M 3.25 -5.074219 "/></g></g></g></svg>