<svg width="30" height="30" viewBox="0 0 30 30" fill="none" xmlns="http://www.w3.org/2000/svg">
<path d="M5.00003 23.75L3.83753 23.2875C3.75446 23.4965 3.72932 23.724 3.76476 23.9461C3.8002 24.1682 3.89489 24.3766 4.03887 24.5494C4.18285 24.7222 4.37077 24.8529 4.58283 24.9278C4.79489 25.0027 5.02323 25.019 5.24378 24.975L5.00003 23.75ZM10.8825 22.58L11.475 21.4788L11.0788 21.2663L10.6388 21.3538L10.8825 22.58ZM7.03003 18.6462L8.19253 19.1087L8.39628 18.5913L8.15128 18.0925L7.03003 18.6462ZM23.75 15C23.75 19.0575 20.1838 22.5 15.5875 22.5V25C21.3888 25 26.25 20.6075 26.25 15H23.75ZM7.42628 15C7.42628 10.9425 10.9938 7.5 15.5888 7.5V5C9.78753 5 4.92503 9.3925 4.92503 15H7.42628ZM15.5888 7.5C20.1838 7.5 23.75 10.9425 23.75 15H26.25C26.25 9.3925 21.39 5 15.5888 5V7.5ZM15.5875 22.5C14.0813 22.5 12.6788 22.125 11.475 21.4788L10.29 23.68C11.9198 24.5517 13.7393 25.0053 15.5875 25V22.5ZM5.24378 24.975L11.1263 23.805L10.6388 21.3538L4.75628 22.5237L5.24378 24.9763V24.975ZM8.15128 18.0925C7.67387 17.1315 7.42655 16.0731 7.42628 15H4.92503C4.92503 16.5 5.27753 17.9225 5.90753 19.2L8.15128 18.0925ZM5.86878 18.1838L3.83753 23.2887L6.16003 24.2113L8.19003 19.1075L5.86753 18.1838H5.86878Z" fill="white"/>
<path d="M11.25 16.25C11.9404 16.25 12.5 15.6904 12.5 15C12.5 14.3096 11.9404 13.75 11.25 13.75C10.5596 13.75 10 14.3096 10 15C10 15.6904 10.5596 16.25 11.25 16.25Z" fill="white"/>
<path d="M15.625 16.25C16.3154 16.25 16.875 15.6904 16.875 15C16.875 14.3096 16.3154 13.75 15.625 13.75C14.9346 13.75 14.375 14.3096 14.375 15C14.375 15.6904 14.9346 16.25 15.625 16.25Z" fill="white"/>
<path d="M20 16.25C20.6904 16.25 21.25 15.6904 21.25 15C21.25 14.3096 20.6904 13.75 20 13.75C19.3096 13.75 18.75 14.3096 18.75 15C18.75 15.6904 19.3096 16.25 20 16.25Z" fill="white"/>
</svg>
